<?xml version="1.0" encoding="UTF-8" standalone="no"?>
<!-- Created with Inkscape (http://www.inkscape.org/) -->

<svg
   xmlns:dc="http://purl.org/dc/elements/1.1/"
   xmlns:cc="http://creativecommons.org/ns#"
   xmlns:rdf="http://www.w3.org/1999/02/22-rdf-syntax-ns#"
   xmlns:svg="http://www.w3.org/2000/svg"
   xmlns="http://www.w3.org/2000/svg"
   version="1.1"
   width="185.26196"
   height="165.1136"
   id="svg2">
  <defs
     id="defs4" />
  <metadata
     id="metadata7">
    <rdf:RDF>
      <cc:Work
         rdf:about="">
        <dc:format>image/svg+xml</dc:format>
        <dc:type
           rdf:resource="http://purl.org/dc/dcmitype/StillImage" />
        <dc:title></dc:title>
      </cc:Work>
    </rdf:RDF>
  </metadata>
  <g
     transform="translate(-253.14092,-220.75013)"
     id="layer1">
    <path
       d="m 334.02691,369.78277 c -15.99764,-9.5635 -27.22474,-18.30361 -40.34147,-31.40514 -18.57505,-18.55354 -27.60599,-34.27544 -29.98855,-52.2069 -2.30979,-17.38376 2.62155,-32.59756 13.97234,-43.10639 16.10212,-14.90772 32.20853,-16.13315 58.7949,-4.4733 l 9.24987,4.05666 11.00629,-4.69892 c 19.79036,-8.44911 32.85181,-9.29064 45.88802,-2.95649 7.06835,3.43444 17.94831,14.22324 21.019,20.84289 8.61638,18.57482 5.48512,41.12397 -8.6805,62.51082 -6.78967,10.25084 -25.1533,28.91192 -37.56717,38.17567 -7.97478,5.95111 -26.88946,17.83805 -30.72807,19.31106 -0.89099,0.34191 -6.14111,-2.17404 -12.62466,-6.04996 z"
       id="path2996"
       style="fill:#000000" />
  </g>
</svg>
