<?xml version="1.0" encoding="UTF-8" standalone="no"?>
<!-- Created with Inkscape (http://www.inkscape.org/) -->

<svg
   xmlns:dc="http://purl.org/dc/elements/1.1/"
   xmlns:cc="http://creativecommons.org/ns#"
   xmlns:rdf="http://www.w3.org/1999/02/22-rdf-syntax-ns#"
   xmlns:svg="http://www.w3.org/2000/svg"
   xmlns="http://www.w3.org/2000/svg"
   xmlns:sodipodi="http://sodipodi.sourceforge.net/DTD/sodipodi-0.dtd"
   xmlns:inkscape="http://www.inkscape.org/namespaces/inkscape"
   width="679.71478"
   height="720.09558"
   id="svg2"
   version="1.1"
   inkscape:version="0.48.4 r9939"
   sodipodi:docname="Twittnuker_Vector.svg">
  <defs
     id="defs4" />
  <sodipodi:namedview
     id="base"
     pagecolor="#ffffff"
     bordercolor="#666666"
     borderopacity="1.0"
     inkscape:pageopacity="0.0"
     inkscape:pageshadow="2"
     inkscape:zoom="0.7"
     inkscape:cx="71.241654"
     inkscape:cy="182.5983"
     inkscape:document-units="px"
     inkscape:current-layer="layer1"
     showgrid="false"
     inkscape:window-width="1920"
     inkscape:window-height="1027"
     inkscape:window-x="0"
     inkscape:window-y="29"
     inkscape:window-maximized="1"
     fit-margin-top="5"
     fit-margin-left="5"
     fit-margin-right="5"
     fit-margin-bottom="5" />
  <metadata
     id="metadata7">
    <rdf:RDF>
      <cc:Work
         rdf:about="">
        <dc:format>image/svg+xml</dc:format>
        <dc:type
           rdf:resource="http://purl.org/dc/dcmitype/StillImage" />
        <dc:title></dc:title>
        <dc:date></dc:date>
        <dc:creator>
          <cc:Agent>
            <dc:title>vanita5</dc:title>
          </cc:Agent>
        </dc:creator>
        <dc:rights>
          <cc:Agent>
            <dc:title></dc:title>
          </cc:Agent>
        </dc:rights>
        <cc:license
           rdf:resource="" />
      </cc:Work>
    </rdf:RDF>
  </metadata>
  <g
     inkscape:label="Ebene 1"
     inkscape:groupmode="layer"
     id="layer1"
     transform="translate(-33.449391,-30.088397)">
    <path
       style="fill:#000000"
       d="m 362.94072,738.17711 c -39.13199,-39.04298 -69.7713,-89.59348 -84.54397,-139.48554 -10.71574,-36.19049 -13.34256,-65.32711 -10.27592,-113.98015 3.30414,-52.42119 13.64636,-128.12776 29.4942,-215.90198 l 3.05203,-16.90386 -27.93106,-45.1902 -27.93106,-45.19021 -0.226,-15.63666 c -0.36424,-25.20207 -0.99137,-109.331013 -0.81631,-109.506073 0.0882,-0.0882 7.45198,-0.30935 16.36397,-0.49148 8.912,-0.18212 21.16964,-0.43721 27.2392,-0.56685 l 11.03556,-0.23571 18.80523,20.23229 c 10.34288,11.12776 18.91313,20.1244 19.045,19.99253 0.13187,-0.13187 0.40916,-0.94169 0.61619,-1.7996 l 0.37644,-1.55983 13.92052,-0.098 13.92053,-0.098 0,-15.87793 0,-15.87793 8.22152,0 8.22152,0 0,15.88248 0,15.88248 14.85479,-0.005 14.85479,-0.006 15.88248,-17.16146 15.88247,-17.16146 4.67132,-0.0289 c 5.36488,-0.0332 50.20956,0.78099 50.36906,0.91445 0.14918,0.12484 -0.6193,96.285573 -0.89652,112.181623 l -0.2293,13.14803 -25.00561,40.45467 -25.00563,40.45468 3.54549,19.64356 c 24.11992,133.63511 34.83745,231.02875 30.68099,278.80826 -1.64965,18.96308 -4.93444,36.23829 -10.48782,55.15683 -14.70344,50.09001 -45.59721,101.09617 -84.91587,140.19768 l -6.85802,6.82012 -4.45364,0 -4.45362,0 -7.02295,-7.00698 z M 200.46803,468.07854 c -27.33655,-3.76396 -50.37549,-7.02283 -51.19765,-7.24189 -0.82215,-0.21903 -2.04136,-0.40226 -2.70936,-0.40715 -0.668,-0.005 -1.21454,-0.1771 -1.21454,-0.38264 0,-0.20554 -0.48208,-0.37371 -1.07129,-0.37371 -0.5892,0 -1.8925,-0.32 -2.89621,-0.71116 -1.00371,-0.39112 -2.83394,-0.9911 -4.06717,-1.33327 -1.23323,-0.34216 -2.62852,-0.77887 -3.10065,-0.97051 -0.47213,-0.19164 -1.18684,-0.3484 -1.58825,-0.3484 -0.4014,0 -0.72983,-0.14766 -0.72983,-0.32816 0,-0.18046 -1.05104,-0.7097 -2.33566,-1.17605 -2.89621,-1.05138 -8.40086,-3.63574 -8.6693,-4.0701 -0.10953,-0.17721 -0.6615,-0.43824 -1.22661,-0.58006 -0.56512,-0.14182 -1.11325,-0.37068 -1.21808,-0.50854 -0.21028,-0.27654 -1.73309,-1.17512 -3.72925,-2.2006 -0.71305,-0.36627 -1.60264,-0.967 -1.97688,-1.33488 -0.37424,-0.36791 -1.05818,-0.81255 -1.51986,-0.98807 -1.05092,-0.39957 -7.85523,-5.42236 -11.08931,-8.18587 -2.417419,-2.06573 -11.211159,-10.75652 -11.211159,-11.07996 0,-0.0933 -0.7539,-0.97339 -1.67534,-1.95571 -0.92144,-0.98232 -1.67819,-1.95582 -1.68168,-2.16331 -0.003,-0.20748 -0.34266,-0.58727 -0.75374,-0.84397 -0.41107,-0.25674 -0.74741,-0.67716 -0.74741,-0.93427 0,-0.25714 -0.34286,-0.68163 -0.76191,-0.94334 -0.41905,-0.26167 -0.66777,-0.62812 -0.5527,-0.8143 0.11507,-0.18622 -0.0161,-0.47498 -0.29139,-0.64177 -0.56031,-0.33944 -4.08392,-5.42355 -5.13119,-7.40366 -0.74621,-1.41089 -1.32733,-2.3502 -1.82496,-2.94977 -0.27406,-0.33025 -0.37303,-0.60043 -0.21993,-0.60043 0.15311,0 0.0541,-0.27019 -0.21992,-0.60044 -0.84658,-1.02003 -1.50825,-2.2932 -3.23244,-6.21969 -0.33846,-0.77077 -0.76111,-1.40139 -0.93922,-1.40139 -0.17811,0 -0.21536,-0.17553 -0.0828,-0.39008 0.13259,-0.21454 0.0752,-0.59292 -0.12757,-0.84083 -0.50399,-0.61624 -2.30985,-5.12209 -2.05284,-5.12209 0.11354,0 0.0282,-0.21473 -0.18958,-0.47714 -0.2178,-0.26246 -0.82949,-1.81801 -1.35929,-3.45678 -0.52981,-1.63881 -1.07027,-3.23188 -1.20102,-3.54018 -0.13075,-0.30831 -0.27808,-0.72873 -0.32739,-0.93427 -0.0493,-0.20554 -0.37777,-1.46679 -0.72989,-2.80279 -0.35212,-1.336 -0.68878,-2.76542 -0.74815,-3.17649 -0.0594,-0.41108 -0.36327,-1.79846 -0.67535,-3.08307 -0.31208,-1.28462 -0.4562,-2.35428 -0.32028,-2.37703 0.70157,-0.11743 2.17011,0.15856 2.56456,0.48197 0.55066,0.45149 5.85082,1.80163 7.07253,1.80163 0.48782,0 0.88694,0.14858 0.88694,0.33017 0,0.18159 1.13513,0.44599 2.52252,0.58755 1.38738,0.14156 3.36334,0.50337 4.39103,0.80403 1.02769,0.30065 3.42892,0.63574 5.33607,0.74463 1.90715,0.1089 4.26226,0.32363 5.23358,0.47717 3.43482,0.54298 19.334429,10e-4 20.017749,-0.68224 0.27458,-0.27457 0.20007,-0.39278 -0.24758,-0.39278 -0.35221,0 -0.93238,-0.14814 -1.28929,-0.32919 -2.1418,-1.0865 -4.17558,-1.91305 -4.70718,-1.91305 -0.33717,0 -0.61305,-0.16816 -0.61305,-0.3737 0,-0.20554 -0.24335,-0.37371 -0.54078,-0.37371 -0.29743,0 -1.33149,-0.42042 -2.29789,-0.93426 -0.96641,-0.51385 -1.984319,-0.93426 -2.262009,-0.93426 -0.2777,0 -0.5049,-0.15481 -0.5049,-0.34401 0,-0.18921 -0.50451,-0.45483 -1.12112,-0.59026 -0.61661,-0.13543 -1.12112,-0.39317 -1.12112,-0.57276 0,-0.17959 -0.71471,-0.66832 -1.58824,-1.08607 -2.36826,-1.13256 -5.59913,-2.99922 -6.44642,-3.72446 -0.41108,-0.35187 -1.74797,-1.30258 -2.97087,-2.1127 -1.22289,-0.81011 -2.51529,-1.72519 -2.87199,-2.0335 -0.3567,-0.3083 -2.01664,-1.65364 -3.68876,-2.98964 -3.57447,-2.85595 -10.61598,-9.70321 -13.25858,-12.89284 -1.02173,-1.23322 -1.95358,-2.32631 -2.07079,-2.42908 -0.57472,-0.50394 -5.22428,-6.68909 -5.23748,-6.96725 -0.008,-0.17601 -0.51286,-0.90224 -1.12112,-1.61386 -0.60826,-0.71162 -1.10593,-1.45513 -1.10593,-1.65225 0,-0.19711 -0.23553,-0.62389 -0.5234,-0.94838 -0.28787,-0.32449 -0.98843,-1.43082 -1.55679,-2.45851 -0.56838,-1.02769 -1.33085,-2.37302 -1.69438,-2.98963 -0.36354,-0.61662 -1.2877,-2.38237 -2.05369,-3.92391 -0.766,-1.54153 -1.49171,-2.88687 -1.61271,-2.98964 -0.121,-0.10277 -0.22645,-0.35502 -0.23435,-0.56056 -0.008,-0.20554 -0.28443,-0.96229 -0.61452,-1.68167 -0.84524,-1.84209 -1.53415,-3.48545 -1.64493,-3.92391 -0.0519,-0.20554 -0.52853,-1.42141 -1.05911,-2.70194 -0.53058,-1.28053 -0.96469,-2.58611 -0.96469,-2.90129 0,-0.31518 -0.14786,-0.86506 -0.32858,-1.22197 -0.74977,-1.48071 -2.14541,-6.66307 -1.97173,-7.32152 0.0464,-0.17578 -0.0955,-0.53625 -0.31524,-0.80102 -0.3707,-0.44667 -0.62273,-1.5639 -0.89247,-3.95634 -0.0599,-0.53142 -0.20847,-1.12725 -0.33011,-1.32406 -0.12163,-0.19681 -0.32521,-1.51538 -0.4524,-2.93014 -0.12719,-1.41477 -0.31596,-2.70934 -0.41948,-2.87684 -0.54131,-0.87586 -1.23307,-20.76391 -0.74944,-21.54644 0.1018,-0.16471 0.28013,-2.00257 0.3963,-4.08414 0.26466,-4.74249 0.3635,-5.03269 1.53264,-4.49999 0.49013,0.22331 0.8024,0.5496 0.69394,0.72508 -0.10845,0.17548 -0.0414,0.31906 0.14909,0.31906 0.37607,0 5.10407,2.99804 6.10736,3.87271 0.3394,0.29588 1.01207,0.65855 1.49482,0.80592 0.48275,0.14737 1.13838,0.49592 1.45694,0.77455 0.58957,0.51567 4.63759,2.78545 6.33434,3.55175 0.51385,0.23207 1.38063,0.65524 1.92619,0.94038 0.54555,0.28514 1.23967,0.51844 1.54249,0.51844 0.30281,0 0.75991,0.25225 1.01579,0.56056 0.25587,0.30831 0.73892,0.56159 1.07344,0.56286 0.33453,0.001 1.08991,0.25352 1.67864,0.56056 0.58872,0.30704 1.29142,0.55825 1.56155,0.55825 0.27013,0 0.71632,0.22518 0.99154,0.50039 0.27521,0.27521 0.91785,0.59897 1.42809,0.71945 1.35886,0.32087 6.41165,1.80434 7.28069,2.13757 0.41107,0.15762 1.21778,0.47569 1.79268,0.70682 0.5749,0.23113 1.53194,0.42024 2.12676,0.42024 0.59481,0 1.17725,0.15497 1.29431,0.34438 0.11706,0.18941 1.3462,0.46245 2.73142,0.60676 1.38522,0.1443 2.81895,0.41892 3.18607,0.61025 0.36712,0.19134 -1.39864,-1.74231 -3.92391,-4.29699 -4.98552,-5.04359 -7.32978,-7.65635 -8.84707,-9.86034 -0.53691,-0.77991 -1.27049,-1.63776 -1.63018,-1.90633 -0.3597,-0.26858 -0.65399,-0.71305 -0.65399,-0.98772 0,-0.27465 -0.25225,-0.59618 -0.56056,-0.71449 -0.3083,-0.1183 -0.56055,-0.38931 -0.56055,-0.60223 0,-0.21292 -0.7308,-1.43741 -1.624,-2.72109 -0.8932,-1.28368 -2.05769,-3.11602 -2.58776,-4.07186 -0.53008,-0.95585 -1.36711,-2.38527 -1.86009,-3.1765 -0.49297,-0.79123 -1.00908,-1.69085 -1.14691,-1.99916 -0.13783,-0.3083 -0.40341,-0.81281 -0.59019,-1.12111 -0.74469,-1.22923 -3.07975,-6.35204 -4.34369,-9.52949 -0.73583,-1.84984 -1.49556,-3.69969 -1.68828,-4.11076 -0.19273,-0.41108 -0.6008,-1.73437 -0.90683,-2.94066 -0.30604,-1.20629 -0.70566,-2.38346 -0.88807,-2.61594 -0.1824,-0.23248 -0.33583,-0.67494 -0.34094,-0.98325 -0.005,-0.3083 -0.29015,-1.56956 -0.6334,-2.80279 -0.34325,-1.23322 -0.69083,-2.70863 -0.7724,-3.27867 -0.0816,-0.57004 -0.25574,-1.21028 -0.38705,-1.42275 -0.2559,-0.41405 -0.41614,-1.3316 -0.73904,-4.23196 -0.11223,-1.00815 -0.27843,-1.95332 -0.36932,-2.10038 -0.0909,-0.14707 -0.25433,-1.17206 -0.3632,-2.27778 -0.10886,-1.10571 -0.28412,-2.59897 -0.38945,-3.31835 -0.10533,-0.71938 -0.28307,-3.49414 -0.39499,-6.16614 -0.11191,-2.67199 -0.21462,-5.02634 -0.22824,-5.23187 -0.0136,-0.20554 0.0902,-2.64397 0.23065,-5.41873 0.25336,-5.00433 1.45001,-13.67177 2.63135,-19.05898 0.33803,-1.54153 0.70746,-3.43342 0.82096,-4.20418 0.11349,-0.77077 0.35487,-1.4014 0.53639,-1.4014 0.18152,0 0.4382,-0.67639 0.57039,-1.5031 0.1322,-0.82671 0.38644,-1.59339 0.56498,-1.70373 0.17854,-0.11035 0.32461,-0.69521 0.32461,-1.29969 0,-0.60448 0.16817,-1.09906 0.37371,-1.09906 0.20554,0 0.37379,-0.29429 0.37389,-0.65398 2.3e-4,-0.79902 1.41897,-4.62853 1.89676,-5.11977 0.1899,-0.19526 0.34529,-0.6341 0.34529,-0.9752 0,-0.55707 1.3055,-3.49033 2.90078,-6.51759 0.32493,-0.61662 1.15312,-2.25625 1.84041,-3.64363 0.68729,-1.38738 1.40183,-2.52251 1.58787,-2.52251 0.18604,0 0.44906,-0.5045 0.58449,-1.12112 0.13543,-0.61661 0.3661,-1.12111 0.5126,-1.12111 0.1465,0 0.89739,-1.07872 1.66864,-2.39716 0.77125,-1.31843 1.64703,-2.60028 1.94618,-2.84855 0.29914,-0.24826 0.5439,-0.66246 0.5439,-0.92043 0,-0.25798 0.27512,-0.69738 0.61138,-0.97645 0.33626,-0.27907 1.02324,-1.15983 1.52662,-1.95723 0.98016,-1.55268 1.14665,-1.51463 2.21481,0.50616 0.38071,0.72024 1.02854,1.81405 1.43962,2.43069 1.00025,1.50043 1.57632,2.40311 2.34637,3.67669 0.3538,0.58516 1.18982,1.79428 1.85782,2.68694 0.66799,0.89267 1.21454,1.73504 1.21454,1.87194 0,0.13691 0.54654,0.93759 1.21454,1.77928 0.668,0.8417 1.38271,1.81062 1.58825,2.15315 0.74659,1.24424 1.89933,2.84307 4.42715,6.14039 1.41814,1.84984 2.66229,3.58006 2.76479,3.84493 0.1025,0.26486 0.66811,1.02162 1.25691,1.68167 0.58879,0.66005 2.25365,2.71361 3.69968,4.56345 3.637579,4.65338 5.148819,6.46018 9.377229,11.21116 1.09759,1.23323 2.33691,2.64706 2.75405,3.14184 0.41715,0.49478 1.43112,1.60144 2.25328,2.45925 1.87472,1.95601 4.92568,5.1158 5.41684,5.61007 8.5586,8.61267 10.79266,10.80907 12.73376,12.51913 1.28319,1.13046 2.96589,2.64397 3.73933,3.36335 1.62748,1.51371 3.56702,3.22837 4.86042,4.29688 0.49711,0.41067 2.10066,1.75601 3.56345,2.98964 1.46278,1.23363 3.96802,3.25198 5.56719,4.4852 1.59916,1.23323 3.42935,2.70649 4.06708,3.27391 0.63773,0.56742 1.53789,1.13219 2.00035,1.25505 0.46246,0.12286 0.84084,0.36954 0.84084,0.54817 0,0.26879 3.06157,2.58843 6.85429,5.19323 0.44367,0.3047 0.94115,0.76716 1.10552,1.02769 0.16436,0.26052 0.48482,0.47367 0.71213,0.47367 0.22731,0 1.01511,0.46246 1.75068,1.02769 1.35309,1.03976 2.38306,1.70736 3.40448,2.20667 0.3083,0.15071 0.76493,0.4516 1.01472,0.66864 1.18867,1.03282 1.52891,1.25557 2.2839,1.49519 0.44668,0.14177 0.81214,0.38479 0.81214,0.54004 0,0.15526 0.7383,0.65101 1.64068,1.10168 0.90238,0.45067 1.84789,1.06906 2.10114,1.37421 0.25325,0.30515 0.61925,0.55481 0.81334,0.55481 0.19408,0 0.90407,0.42042 1.57776,0.93427 0.67368,0.51384 1.37718,0.93539 1.56331,0.93678 0.18614,10e-4 1.51052,0.75814 2.94307,1.68167 1.43255,0.92354 2.81993,1.67916 3.08307,1.67916 0.26314,0 0.47843,0.14991 0.47843,0.33313 0,0.18322 0.63063,0.61359 1.4014,0.95638 1.84303,0.81966 3.59732,1.7578 3.83048,2.04842 0.10277,0.12809 0.90156,0.54809 1.7751,0.93332 0.87354,0.38524 1.58825,0.84306 1.58825,1.01738 0,0.17432 0.21781,0.31695 0.48402,0.31695 0.26621,0 2.29605,0.92492 4.51074,2.05538 2.21468,1.13046 4.25312,2.05538 4.52985,2.05538 0.27673,0 0.5592,0.13802 0.62772,0.3067 0.13055,0.32145 6.23271,3.43035 6.73309,3.43035 0.15875,0 1.59562,0.59769 3.19305,1.32819 1.59742,0.7305 3.32483,1.50495 3.83867,1.72102 0.51385,0.21605 1.43877,0.61497 2.05538,0.88647 1.70186,0.74935 3.42357,1.43529 6.91355,2.7544 1.74708,0.66034 3.43427,1.33775 3.74932,1.50536 0.31506,0.16761 1.11386,0.42358 1.77511,0.56882 0.66126,0.14523 1.20228,0.41887 1.20228,0.60807 0,0.18921 0.29429,0.34649 0.65399,0.34952 0.81612,0.007 4.83367,1.24683 5.18807,1.60123 0.14399,0.14399 0.71768,0.26179 1.27487,0.26179 0.55719,0 1.22242,0.25225 1.4783,0.56056 0.25587,0.30831 0.72698,0.56056 1.04691,0.56056 0.66419,0 2.93446,0.6794 3.89961,1.16699 0.3569,0.18031 1.06169,0.32783 1.56619,0.32783 0.50451,0 1.02122,0.16817 1.14825,0.37371 0.12703,0.20553 0.6919,0.3737 1.25528,0.3737 0.56338,0 1.18516,0.16084 1.38175,0.35743 0.34547,0.34547 7.03746,2.15186 9.32154,2.51619 0.61661,0.0984 1.65381,0.41827 2.30489,0.71092 0.65107,0.29264 1.99641,0.63808 2.98964,0.76763 0.99323,0.12955 1.97404,0.36428 2.17958,0.52162 0.20554,0.15733 1.38271,0.4071 2.61594,0.55504 1.23322,0.14794 2.4104,0.39564 2.61593,0.55046 0.20554,0.15481 1.31168,0.39479 2.45809,0.53328 l 2.08437,0.25181 -0.3179,2.31682 c -0.17485,1.27425 -6.37122,46.88119 -13.76969,101.34874 -7.39849,54.46757 -13.54608,99.4944 -13.66131,100.05963 -0.13263,0.65051 -0.43866,1.01431 -0.83382,0.99121 -0.34336,-0.0202 -22.99057,-3.11607 -50.32712,-6.88006 z m 294.52247,5.91568 c -0.11847,-0.57999 -6.26873,-45.61889 -13.6672,-100.08646 -7.39847,-54.46755 -13.59484,-100.07449 -13.7697,-101.34874 l -0.31791,-2.31682 2.08438,-0.25181 c 1.14642,-0.13849 2.25255,-0.37847 2.45809,-0.53328 0.20554,-0.15482 1.38271,-0.40252 2.61594,-0.55046 1.23322,-0.14794 2.4104,-0.39771 2.61593,-0.55504 0.20554,-0.15734 1.18637,-0.39207 2.17957,-0.52162 0.99323,-0.12955 2.33857,-0.47499 2.98964,-0.76763 0.65111,-0.29265 1.68829,-0.61256 2.3049,-0.71092 2.28409,-0.36433 8.97607,-2.17072 9.32152,-2.51619 0.19661,-0.19659 0.81838,-0.35743 1.38178,-0.35743 0.56336,0 1.12825,-0.16817 1.25527,-0.3737 0.12703,-0.20554 0.64375,-0.37371 1.14825,-0.37371 0.5045,0 1.20928,-0.14752 1.5662,-0.32783 0.96513,-0.48759 3.23539,-1.16699 3.89962,-1.16699 0.31993,0 0.79102,-0.25225 1.0469,-0.56056 0.25587,-0.30831 0.92111,-0.56056 1.4783,-0.56056 0.55719,0 1.13087,-0.1178 1.27486,-0.26179 0.35438,-0.3544 4.37194,-1.59436 5.18808,-1.60123 0.35969,-0.003 0.65398,-0.16031 0.65398,-0.34952 0,-0.1892 0.54101,-0.46284 1.20229,-0.60807 0.66123,-0.14524 1.46003,-0.40121 1.7751,-0.56882 0.31503,-0.16761 2.00224,-0.84502 3.74931,-1.50536 3.49,-1.31911 5.21169,-2.00505 6.91355,-2.7544 0.61661,-0.2715 1.54153,-0.67042 2.05538,-0.88647 0.51384,-0.21607 2.24126,-0.99052 3.83866,-1.72102 1.59744,-0.7305 3.0343,-1.32819 3.19305,-1.32819 0.5004,0 6.60256,-3.1089 6.73309,-3.43035 0.0685,-0.16868 0.35099,-0.3067 0.62771,-0.3067 0.27673,0 2.31518,-0.92492 4.52987,-2.05538 2.2147,-1.13046 4.24451,-2.05538 4.51074,-2.05538 0.26623,0 0.48402,-0.14263 0.48402,-0.31695 0,-0.17432 0.71472,-0.63214 1.58825,-1.01738 0.87354,-0.38523 1.67233,-0.80523 1.7751,-0.93332 0.23316,-0.29062 1.98744,-1.22876 3.83048,-2.04842 0.77077,-0.34279 1.4014,-0.77316 1.4014,-0.95638 0,-0.18322 0.21529,-0.33313 0.47842,-0.33313 0.26316,0 1.65054,-0.75562 3.08307,-1.67916 1.43256,-0.92353 2.75693,-1.68029 2.94308,-1.68167 0.18614,-0.001 0.88964,-0.42294 1.56332,-0.93678 0.67368,-0.51385 1.38368,-0.93427 1.57774,-0.93427 0.19411,0 0.56011,-0.24966 0.81334,-0.55481 0.25326,-0.30515 1.19877,-0.92354 2.10116,-1.37421 0.90238,-0.45067 1.64067,-0.94642 1.64067,-1.10168 0,-0.15525 0.37053,-0.39988 0.82343,-0.54362 0.45285,-0.14373 1.03561,-0.44936 1.295,-0.67916 0.95276,-0.84417 1.44448,-1.20919 1.99233,-1.47903 1.03218,-0.50836 2.0568,-1.17311 3.4045,-2.20873 0.73556,-0.56523 1.52333,-1.02769 1.75066,-1.02769 0.22732,0 0.54778,-0.21315 0.71213,-0.47367 0.16436,-0.26053 0.66187,-0.72299 1.10553,-1.02769 3.7927,-2.6048 6.85428,-4.92444 6.85428,-5.19323 0,-0.17863 0.37838,-0.42531 0.84084,-0.54817 0.46246,-0.12286 1.36261,-0.68763 2.00033,-1.25505 0.63773,-0.56742 2.46796,-2.04068 4.06712,-3.27391 1.59916,-1.23322 4.1044,-3.25157 5.56716,-4.4852 1.4628,-1.23363 3.06637,-2.57897 3.56347,-2.98964 1.29339,-1.06851 3.23292,-2.78317 4.86041,-4.29688 0.77346,-0.71938 2.45614,-2.23289 3.73933,-3.36335 1.94111,-1.71006 4.17515,-3.90646 12.73375,-12.51913 0.49117,-0.49427 3.54213,-3.65406 5.41686,-5.61007 0.82216,-0.85781 1.83613,-1.96447 2.25326,-2.45925 0.41717,-0.49478 1.65649,-1.90861 2.75406,-3.14184 4.2284,-4.75098 5.73967,-6.55778 9.37724,-11.21116 1.44602,-1.84984 3.11087,-3.9034 3.69969,-4.56345 0.58881,-0.66005 1.15441,-1.41681 1.25688,-1.68167 0.10251,-0.26487 1.34668,-1.99509 2.76482,-3.84493 2.52782,-3.29732 3.68055,-4.89615 4.42714,-6.14039 0.20554,-0.34253 0.92025,-1.31145 1.58825,-2.15315 0.668,-0.84169 1.21454,-1.64237 1.21454,-1.77928 0,-0.1369 0.54654,-0.97927 1.21454,-1.87194 0.668,-0.89266 1.50402,-2.10178 1.85784,-2.68694 0.77002,-1.27358 1.34609,-2.17626 2.34635,-3.67669 0.41107,-0.61664 1.05889,-1.71045 1.43962,-2.43069 1.06817,-2.02079 1.23465,-2.05884 2.21481,-0.50616 0.50338,0.7974 1.19036,1.67816 1.52662,1.95723 0.33626,0.27907 0.61138,0.71847 0.61138,0.97645 0,0.25797 0.24474,0.67217 0.54389,0.92043 0.29915,0.24827 1.17493,1.53012 1.94619,2.84855 0.77125,1.31844 1.52214,2.39716 1.66863,2.39716 0.14649,0 0.37718,0.5045 0.51261,1.12111 0.13543,0.61662 0.39844,1.12112 0.58448,1.12112 0.18606,0 0.90059,1.13513 1.58787,2.52251 0.68728,1.38738 1.51549,3.02701 1.84042,3.64363 1.59528,3.02726 2.90078,5.96052 2.90078,6.51759 0,0.3411 0.15539,0.77994 0.3453,0.9752 0.47779,0.49124 1.89652,4.32075 1.89675,5.11977 1.1e-4,0.35969 0.16835,0.65398 0.37389,0.65398 0.20554,0 0.3737,0.49458 0.3737,1.09906 0,0.60448 0.14608,1.18934 0.3246,1.29969 0.17856,0.11034 0.43279,0.87702 0.56501,1.70373 0.13218,0.82671 0.38888,1.5031 0.57039,1.5031 0.1815,0 0.42288,0.63063 0.53638,1.4014 0.11349,0.77076 0.48293,2.66265 0.82095,4.20418 1.18136,5.38721 2.378,14.05465 2.63137,19.05898 0.14048,2.77476 0.24426,5.21319 0.23065,5.41873 -0.0135,0.20553 -0.11633,2.55988 -0.22826,5.23187 -0.11192,2.672 -0.28965,5.44676 -0.395,6.16614 -0.10531,0.71938 -0.28058,2.21264 -0.38944,3.31835 -0.10886,1.10572 -0.27228,2.13071 -0.3632,2.27778 -0.0909,0.14706 -0.25708,1.09223 -0.3693,2.10038 -0.32292,2.90036 -0.48316,3.81791 -0.73904,4.23196 -0.13132,0.21247 -0.3055,0.85271 -0.38705,1.42275 -0.0816,0.57004 -0.42916,2.04545 -0.77241,3.27867 -0.34325,1.23323 -0.62827,2.49449 -0.63339,2.80279 -0.005,0.30831 -0.15856,0.75077 -0.34097,0.98325 -0.18237,0.23248 -0.58201,1.40965 -0.88804,2.61594 -0.30602,1.20629 -0.71411,2.52958 -0.90683,2.94066 -0.19272,0.41107 -0.95246,2.26092 -1.68829,4.11076 -0.73586,1.84984 -1.90433,4.54052 -2.59665,5.97928 -0.69233,1.43877 -1.3588,2.86819 -1.48107,3.1765 -0.12232,0.30831 -0.43361,0.89052 -0.69184,1.29381 -0.8084,1.26247 -2.1691,3.56944 -3.17131,5.37667 -0.5301,0.95584 -1.66276,2.7469 -2.51705,3.98012 -0.85429,1.23323 -1.66389,2.53653 -1.79909,2.89622 -0.13525,0.35969 -0.41934,0.65399 -0.6313,0.65399 -0.21201,0 -0.38544,0.24271 -0.38544,0.53937 0,0.29665 -0.2943,0.75911 -0.65399,1.02769 -0.35969,0.26857 -1.09327,1.12642 -1.63018,1.90633 -1.51728,2.20399 -3.86157,4.81675 -8.84706,9.86034 -2.52528,2.55468 -4.29104,4.48833 -3.92391,4.29699 0.36709,-0.19133 1.80085,-0.46595 3.18607,-0.61025 1.38521,-0.14431 2.61433,-0.41735 2.73141,-0.60676 0.11704,-0.18941 0.6995,-0.34438 1.29433,-0.34438 0.59479,0 1.55185,-0.18911 2.12672,-0.42024 0.57491,-0.23113 1.38162,-0.5492 1.7927,-0.70682 0.86905,-0.33323 5.92181,-1.8167 7.28068,-2.13757 0.51025,-0.12048 1.15288,-0.44424 1.42811,-0.71945 0.2752,-0.27521 0.7214,-0.50039 0.99152,-0.50039 0.27015,0 0.97283,-0.25121 1.56156,-0.55825 0.58874,-0.30704 1.34411,-0.55929 1.67865,-0.56056 0.3345,-10e-4 0.81756,-0.25455 1.07343,-0.56286 0.25588,-0.30831 0.71299,-0.56056 1.01581,-0.56056 0.30277,0 0.99689,-0.2333 1.54247,-0.51844 0.54557,-0.28514 1.41234,-0.70831 1.92619,-0.94038 1.69673,-0.7663 5.74478,-3.03608 6.33434,-3.55175 0.31855,-0.27863 0.97418,-0.62718 1.45693,-0.77455 0.48275,-0.14737 1.15542,-0.51004 1.49482,-0.80592 1.00329,-0.87467 5.7313,-3.87271 6.10736,-3.87271 0.19047,0 0.25755,-0.14358 0.1491,-0.31906 -0.10844,-0.17548 0.20382,-0.50177 0.69394,-0.72508 1.16914,-0.5327 1.26798,-0.2425 1.53264,4.49999 0.11618,2.08157 0.29452,3.91943 0.39631,4.08414 0.48362,0.78253 -0.20815,20.67058 -0.74946,21.54644 -0.10352,0.1675 -0.29228,1.46207 -0.41945,2.87684 -0.12721,1.41476 -0.3308,2.73333 -0.45244,2.93014 -0.12161,0.19681 -0.27016,0.79264 -0.3301,1.32406 -0.26974,2.39244 -0.52177,3.50967 -0.89248,3.95634 -0.21974,0.26477 -0.3616,0.62524 -0.31522,0.80102 0.17366,0.65845 -1.22198,5.84081 -1.97175,7.32152 -0.18068,0.35691 -0.32856,0.90679 -0.32856,1.22197 0,0.31518 -0.43409,1.62076 -0.96468,2.90129 -0.53059,1.28053 -1.00718,2.4964 -1.05912,2.70194 -0.11077,0.43846 -0.79969,2.08182 -1.64494,3.92391 -0.33009,0.71938 -0.6066,1.47613 -0.61452,1.68167 -0.008,0.20554 -0.11335,0.45779 -0.23435,0.56056 -0.12097,0.10277 -0.84671,1.44811 -1.61269,2.98964 -0.76598,1.54154 -1.69016,3.30729 -2.0537,3.92391 -0.36354,0.61661 -1.12601,1.96194 -1.69438,2.98963 -0.56837,1.02769 -1.26891,2.13402 -1.55678,2.45851 -0.28787,0.32449 -0.52341,0.75127 -0.52341,0.94838 0,0.19712 -0.49767,0.94063 -1.10595,1.65225 -0.60824,0.71162 -1.11274,1.43785 -1.12111,1.61386 -0.0131,0.27816 -4.66276,6.46331 -5.23748,6.96725 -0.1172,0.10277 -1.04907,1.19586 -2.07078,2.42908 -2.64262,3.18963 -9.68413,10.03689 -13.25858,12.89284 -1.67211,1.336 -3.33207,2.68134 -3.68877,2.98964 -0.35671,0.30831 -1.64909,1.22339 -2.872,2.0335 -1.22288,0.81012 -2.55977,1.76083 -2.97085,2.1127 -0.8473,0.72524 -4.07817,2.5919 -6.44642,3.72446 -0.87354,0.41775 -1.58825,0.90648 -1.58825,1.08607 0,0.17959 -0.5045,0.43733 -1.12111,0.57276 -0.61662,0.13543 -1.12112,0.40105 -1.12112,0.59026 0,0.1892 -0.22721,0.34401 -0.50491,0.34401 -0.27767,0 -1.2956,0.42041 -2.262,0.93426 -0.96641,0.51384 -2.00045,0.93426 -2.29788,0.93426 -0.29743,0 -0.54079,0.16817 -0.54079,0.37371 0,0.20554 -0.27587,0.3737 -0.61306,0.3737 -0.5316,0 -2.56538,0.82655 -4.70716,1.91305 -0.35693,0.18105 -0.9371,0.32919 -1.28928,0.32919 -0.44767,0 -0.52218,0.11821 -0.24758,0.39278 0.68332,0.68332 16.58291,1.22522 20.01771,0.68224 0.97134,-0.15354 3.32647,-0.36827 5.2336,-0.47717 1.90713,-0.10889 4.30837,-0.44398 5.33606,-0.74463 1.02769,-0.30066 3.00366,-0.66247 4.39104,-0.80403 1.38738,-0.14156 2.52251,-0.40596 2.52251,-0.58755 0,-0.18159 0.39912,-0.33017 0.88696,-0.33017 1.22171,0 6.52187,-1.35014 7.07252,-1.80163 0.39445,-0.32341 1.863,-0.5994 2.56455,-0.48197 0.13592,0.0228 -0.008,1.09241 -0.32026,2.37703 -0.31208,1.28461 -0.61602,2.67199 -0.67536,3.08307 -0.0594,0.41107 -0.39602,1.84049 -0.74816,3.17649 -0.35211,1.336 -0.68056,2.59725 -0.72988,2.80279 -0.0493,0.20554 -0.19665,0.62596 -0.32741,0.93427 -0.13072,0.3083 -0.67117,1.90137 -1.20101,3.54018 -0.5298,1.63877 -1.14149,3.19432 -1.35928,3.45678 -0.2178,0.26241 -0.30311,0.47714 -0.18958,0.47714 0.257,0 -1.54886,4.50585 -2.05284,5.12209 -0.20277,0.24791 -0.26017,0.62629 -0.12758,0.84083 0.13259,0.21455 0.0954,0.39008 -0.0827,0.39008 -0.17811,0 -0.60077,0.63062 -0.93924,1.40139 -1.7242,3.92649 -2.38584,5.19966 -3.23244,6.21969 -0.27407,0.33025 -0.37303,0.60044 -0.21992,0.60044 0.15311,0 0.0542,0.27018 -0.21993,0.60043 -0.49762,0.59957 -1.07873,1.53888 -1.82495,2.94977 -1.04727,1.98011 -4.5709,7.06422 -5.1312,7.40366 -0.27535,0.16679 -0.40644,0.45555 -0.29138,0.64177 0.11507,0.18618 -0.13367,0.55263 -0.55271,0.8143 -0.41903,0.26171 -0.76191,0.6862 -0.76191,0.94334 0,0.25711 -0.33633,0.67753 -0.74741,0.93427 -0.41107,0.2567 -0.75025,0.63649 -0.75373,0.84397 -0.004,0.20749 -0.76026,1.18099 -1.68167,2.16331 -0.92145,0.98232 -1.67536,1.8624 -1.67536,1.95571 0,0.32344 -8.79374,9.01423 -11.21116,11.07996 -3.23408,2.76351 -10.0384,7.7863 -11.0893,8.18587 -0.46167,0.17552 -1.14563,0.62016 -1.51986,0.98807 -0.37426,0.36788 -1.26383,0.96861 -1.9769,1.33488 -1.99615,1.02548 -3.51896,1.92406 -3.72924,2.2006 -0.10483,0.13786 -0.65298,0.36672 -1.2181,0.50854 -0.56511,0.14182 -1.11708,0.40285 -1.22661,0.58006 -0.26843,0.43436 -5.77308,3.01872 -8.66929,4.0701 -1.28461,0.46635 -2.33566,0.99559 -2.33566,1.17605 0,0.1805 -0.32841,0.32816 -0.72981,0.32816 -0.40143,0 -1.11615,0.15676 -1.58825,0.3484 -0.47214,0.19164 -1.86744,0.62835 -3.10067,0.97051 -1.23323,0.34217 -3.06345,0.94215 -4.06719,1.33327 -1.00369,0.39116 -2.30699,0.71116 -2.89621,0.71116 -0.58919,0 -1.07127,0.14463 -1.07127,0.32143 0,0.1768 -0.92002,0.41638 -2.0445,0.53242 -1.12448,0.11607 -2.59595,0.39388 -3.26992,0.61743 -0.67398,0.22352 -23.0031,3.34661 -49.62027,6.94024 -26.61717,3.59362 -49.00945,6.63065 -49.76067,6.74897 -1.26701,0.19955 -1.38137,0.13883 -1.58122,-0.83942 z"
       id="path2998"
       inkscape:connector-curvature="0" />
  </g>
</svg>
