<?xml version="1.0" encoding="UTF-8" standalone="no"?>
<!-- Created with Inkscape (http://www.inkscape.org/) -->

<svg
   xmlns:dc="http://purl.org/dc/elements/1.1/"
   xmlns:cc="http://creativecommons.org/ns#"
   xmlns:rdf="http://www.w3.org/1999/02/22-rdf-syntax-ns#"
   xmlns:svg="http://www.w3.org/2000/svg"
   xmlns="http://www.w3.org/2000/svg"
   xmlns:sodipodi="http://sodipodi.sourceforge.net/DTD/sodipodi-0.dtd"
   xmlns:inkscape="http://www.inkscape.org/namespaces/inkscape"
   width="720.09998"
   height="720.09998"
   id="svg2"
   version="1.1"
   inkscape:version="0.48.4 r9939"
   sodipodi:docname="twittnuker_vector_action.svg">
  <defs
     id="defs4" />
  <sodipodi:namedview
     id="base"
     pagecolor="#ffffff"
     bordercolor="#666666"
     borderopacity="1.0"
     inkscape:pageopacity="0.0"
     inkscape:pageshadow="2"
     inkscape:zoom="0.49497475"
     inkscape:cx="415.47775"
     inkscape:cy="526.50132"
     inkscape:document-units="px"
     inkscape:current-layer="layer1"
     showgrid="false"
     inkscape:window-width="1366"
     inkscape:window-height="715"
     inkscape:window-x="0"
     inkscape:window-y="29"
     inkscape:window-maximized="1"
     fit-margin-top="5"
     fit-margin-left="5"
     fit-margin-right="5"
     fit-margin-bottom="5" />
  <metadata
     id="metadata7">
    <rdf:RDF>
      <cc:Work
         rdf:about="">
        <dc:format>image/svg+xml</dc:format>
        <dc:type
           rdf:resource="http://purl.org/dc/dcmitype/StillImage" />
        <dc:title></dc:title>
        <dc:date />
        <dc:creator>
          <cc:Agent>
            <dc:title>vanita5</dc:title>
          </cc:Agent>
        </dc:creator>
        <dc:rights>
          <cc:Agent>
            <dc:title />
          </cc:Agent>
        </dc:rights>
        <cc:license
           rdf:resource="" />
      </cc:Work>
    </rdf:RDF>
  </metadata>
  <g
     inkscape:label="Ebene 1"
     inkscape:groupmode="layer"
     id="layer1"
     transform="translate(-33.449391,-30.08393)">
    <path
       style="fill:#000000;fill-opacity:1"
       d="M 81.46875 81.46875 L 81.46875 638.65625 L 638.65625 638.65625 L 638.65625 81.46875 L 81.46875 81.46875 z M 310.1875 123.6875 L 322.6875 137.15625 C 329.57297 144.56423 335.28722 150.55654 335.375 150.46875 C 335.4628 150.38095 335.64342 149.85239 335.78125 149.28125 L 336.03125 148.21875 L 345.3125 148.15625 L 354.5625 148.09375 L 354.5625 137.53125 L 354.5625 126.96875 L 360.0625 126.96875 L 365.53125 126.96875 L 365.53125 137.53125 L 365.53125 148.09375 L 375.40625 148.09375 L 385.3125 148.09375 L 395.875 136.6875 L 406.4375 125.25 L 409.5625 125.21875 C 413.13408 125.19665 442.98759 125.75491 443.09375 125.84375 C 443.19285 125.92685 442.68455 189.94894 442.5 200.53125 L 442.34375 209.28125 L 425.6875 236.21875 L 409.03125 263.125 L 411.40625 276.21875 C 427.4634 365.18235 434.61085 430.00471 431.84375 461.8125 C 430.74555 474.43661 428.54075 485.93679 424.84375 498.53125 C 415.05532 531.87718 394.48772 565.84434 368.3125 591.875 L 363.75 596.40625 L 360.78125 596.40625 L 357.8125 596.40625 L 353.15625 591.75 C 327.1053 565.7583 306.70947 532.08915 296.875 498.875 C 289.74131 474.78225 287.98972 455.38932 290.03125 423 C 292.23089 388.10216 299.10602 337.71432 309.65625 279.28125 L 311.6875 268.03125 L 293.09375 237.9375 L 274.5 207.84375 L 274.34375 197.4375 C 274.10128 180.65998 273.69595 124.67904 273.8125 124.5625 C 273.8712 124.5038 278.78586 124.34 284.71875 124.21875 C 290.65165 124.0975 298.80313 123.93005 302.84375 123.84375 L 310.1875 123.6875 z M 160.28125 184.625 C 160.53553 184.49831 160.74306 184.81545 161.1875 185.65625 C 161.44095 186.13572 161.88258 186.87074 162.15625 187.28125 C 162.82214 188.28012 163.20611 188.90215 163.71875 189.75 C 163.95428 190.13955 164.49281 190.93699 164.9375 191.53125 C 165.3822 192.12552 165.75 192.69011 165.75 192.78125 C 165.75 192.87245 166.1178 193.40841 166.5625 193.96875 C 167.0072 194.52908 167.48816 195.14697 167.625 195.375 C 168.12201 196.20331 168.87968 197.27367 170.5625 199.46875 C 171.50659 200.70024 172.33801 201.85493 172.40625 202.03125 C 172.47455 202.20758 172.85803 202.71684 173.25 203.15625 C 173.64197 203.59566 174.75609 204.95602 175.71875 206.1875 C 178.14036 209.28534 179.12256 210.49343 181.9375 213.65625 C 182.66818 214.47724 183.50356 215.42061 183.78125 215.75 C 184.05896 216.07937 184.73392 216.80393 185.28125 217.375 C 186.52928 218.67715 188.54803 220.79595 188.875 221.125 C 194.57264 226.85863 196.08277 228.33032 197.375 229.46875 C 198.22925 230.22132 199.32885 231.20859 199.84375 231.6875 C 200.92719 232.69521 202.2327 233.85117 203.09375 234.5625 C 203.42468 234.83589 204.49493 235.71 205.46875 236.53125 C 206.44254 237.35251 208.09164 238.71027 209.15625 239.53125 C 210.22084 240.35224 211.45044 241.34101 211.875 241.71875 C 212.29955 242.09649 212.91088 242.48071 213.21875 242.5625 C 213.52661 242.6443 213.75 242.78734 213.75 242.90625 C 213.75 243.0852 215.81885 244.64093 218.34375 246.375 C 218.63911 246.57784 218.95307 246.88906 219.0625 247.0625 C 219.17189 247.23594 219.37992 247.375 219.53125 247.375 C 219.68258 247.375 220.22907 247.68622 220.71875 248.0625 C 221.61953 248.75468 222.28876 249.19886 222.96875 249.53125 C 223.17399 249.63154 223.48996 249.82426 223.65625 249.96875 C 224.44757 250.65632 224.65364 250.80923 225.15625 250.96875 C 225.45362 251.06315 225.71875 251.20915 225.71875 251.3125 C 225.71875 251.4159 226.21176 251.76247 226.8125 252.0625 C 227.41322 252.36252 228.01891 252.76561 228.1875 252.96875 C 228.3561 253.17189 228.62079 253.34375 228.75 253.34375 C 228.87921 253.34375 229.33277 253.62667 229.78125 253.96875 C 230.22974 254.31082 230.71983 254.59283 230.84375 254.59375 C 230.96766 254.59442 231.82758 255.10394 232.78125 255.71875 C 233.73493 256.33356 234.66859 256.8125 234.84375 256.8125 C 235.01893 256.8125 235.15625 256.90928 235.15625 257.03125 C 235.15625 257.15322 235.58063 257.4593 236.09375 257.6875 C 237.3207 258.23316 238.50104 258.83778 238.65625 259.03125 C 238.72475 259.11655 239.23096 259.39979 239.8125 259.65625 C 240.39403 259.9127 240.875 260.2277 240.875 260.34375 C 240.875 260.45979 241.04153 260.5625 241.21875 260.5625 C 241.39597 260.5625 242.74439 261.18494 244.21875 261.9375 C 245.69311 262.69008 247.03453 263.28125 247.21875 263.28125 C 247.40298 263.28125 247.61064 263.38773 247.65625 263.5 C 247.74315 263.714 251.79187 265.78125 252.125 265.78125 C 252.2307 265.78125 253.18656 266.16994 254.25 266.65625 C 255.31344 267.14256 256.47041 267.66866 256.8125 267.8125 C 257.15458 267.95633 257.77701 268.22551 258.1875 268.40625 C 259.32046 268.90511 260.4579 269.3406 262.78125 270.21875 C 263.94431 270.65835 265.07151 271.13842 265.28125 271.25 C 265.49098 271.36159 266.02855 271.52832 266.46875 271.625 C 266.90897 271.7217 267.25 271.9053 267.25 272.03125 C 267.25 272.15721 267.44804 272.24798 267.6875 272.25 C 268.23081 272.255 270.92032 273.07656 271.15625 273.3125 C 271.25215 273.4084 271.62907 273.5 272 273.5 C 272.37093 273.5 272.79841 273.66976 272.96875 273.875 C 273.13909 274.08025 273.47452 274.25 273.6875 274.25 C 274.12967 274.25 275.63874 274.6754 276.28125 275 C 276.51885 275.12003 276.97664 275.21875 277.3125 275.21875 C 277.64836 275.21875 277.97794 275.33189 278.0625 275.46875 C 278.1471 275.60557 278.53121 275.71875 278.90625 275.71875 C 279.28131 275.71875 279.71288 275.8379 279.84375 275.96875 C 280.07374 276.19875 284.5107 277.4137 286.03125 277.65625 C 286.44174 277.72175 287.12905 277.93018 287.5625 278.125 C 287.99592 278.31982 288.90129 278.53875 289.5625 278.625 C 290.22371 278.7112 290.86318 278.86401 291 278.96875 C 291.13684 279.07353 291.92901 279.24527 292.75 279.34375 C 293.57098 279.44225 294.36317 279.61569 294.5 279.71875 C 294.63684 279.82181 295.36181 279.97029 296.125 280.0625 L 297.53125 280.21875 L 297.3125 281.78125 C 297.1961 282.62954 293.08157 312.98985 288.15625 349.25 C 283.23092 385.51016 279.10797 415.46746 279.03125 415.84375 C 278.94295 416.2768 278.76306 416.54663 278.5 416.53125 C 278.27142 416.51775 263.1985 414.44327 245 411.9375 C 226.8015 409.43175 211.45358 407.27085 210.90625 407.125 C 210.35892 406.9792 209.53844 406.84701 209.09375 406.84375 C 208.64905 406.84075 208.28125 406.73058 208.28125 406.59375 C 208.28125 406.45692 207.98601 406.34375 207.59375 406.34375 C 207.20151 406.34375 206.32443 406.1354 205.65625 405.875 C 204.98806 405.61463 203.75849 405.19654 202.9375 404.96875 C 202.11651 404.74096 201.1893 404.47133 200.875 404.34375 C 200.56068 404.21618 200.07973 404.09375 199.8125 404.09375 C 199.54528 404.09375 199.34375 403.99516 199.34375 403.875 C 199.34375 403.75486 198.63645 403.40422 197.78125 403.09375 C 195.85319 402.39383 192.17871 400.69541 192 400.40625 C 191.927 400.28828 191.5637 400.09442 191.1875 400 C 190.81128 399.9056 190.44479 399.74803 190.375 399.65625 C 190.23502 399.47215 189.23514 398.87017 187.90625 398.1875 C 187.43156 397.94366 186.84289 397.55741 186.59375 397.3125 C 186.34462 397.06758 185.86985 396.7731 185.5625 396.65625 C 184.86288 396.39025 180.34049 393.05847 178.1875 391.21875 C 176.57818 389.84355 170.71875 384.05906 170.71875 383.84375 C 170.71875 383.78165 170.23842 383.18521 169.625 382.53125 C 169.01158 381.8773 168.50233 381.23188 168.5 381.09375 C 168.498 380.95562 168.27367 380.70214 168 380.53125 C 167.72635 380.36033 167.5 380.07742 167.5 379.90625 C 167.5 379.73508 167.27897 379.45549 167 379.28125 C 166.72103 379.10705 166.54839 378.84269 166.625 378.71875 C 166.7017 378.59478 166.62108 378.42354 166.4375 378.3125 C 166.06448 378.08653 163.69719 374.69319 163 373.375 C 162.50324 372.43574 162.11253 371.80541 161.78125 371.40625 C 161.5988 371.18641 161.55434 371 161.65625 371 C 161.75815 371 161.68239 370.84486 161.5 370.625 C 160.93641 369.94594 160.49158 369.08269 159.34375 366.46875 C 159.11843 365.95563 158.83732 365.53125 158.71875 365.53125 C 158.60018 365.53125 158.56799 365.42407 158.65625 365.28125 C 158.74455 365.13841 158.72865 364.88378 158.59375 364.71875 C 158.25822 364.3085 157.04765 361.3125 157.21875 361.3125 C 157.29435 361.3125 157.23876 361.1747 157.09375 361 C 156.94876 360.82528 156.5402 359.77846 156.1875 358.6875 C 155.8348 357.59651 155.46204 356.54899 155.375 356.34375 C 155.288 356.1385 155.18908 355.85559 155.15625 355.71875 C 155.12335 355.58192 154.92191 354.73315 154.6875 353.84375 C 154.45309 352.95434 154.22702 351.99241 154.1875 351.71875 C 154.148 351.44509 153.92652 350.54269 153.71875 349.6875 C 153.511 348.8323 153.44078 348.1089 153.53125 348.09375 C 153.99831 348.01565 154.95616 348.19098 155.21875 348.40625 C 155.58534 348.70682 159.12419 349.625 159.9375 349.625 C 160.26226 349.625 160.53125 349.72285 160.53125 349.84375 C 160.53125 349.96465 161.29513 350.12451 162.21875 350.21875 C 163.14235 350.31295 164.44085 350.54984 165.125 350.75 C 165.80916 350.95014 167.41787 351.17751 168.6875 351.25 C 169.95712 351.3225 171.50962 351.49153 172.15625 351.59375 C 174.44288 351.95522 185.0451 351.57984 185.5 351.125 C 185.6828 350.94221 185.6105 350.875 185.3125 350.875 C 185.07803 350.875 184.70636 350.77669 184.46875 350.65625 C 183.04291 349.93294 181.69765 349.375 181.34375 349.375 C 181.11928 349.375 180.9375 349.26185 180.9375 349.125 C 180.9375 348.98816 180.76052 348.875 180.5625 348.875 C 180.3645 348.875 179.67461 348.59207 179.03125 348.25 C 178.3879 347.90792 177.71612 347.625 177.53125 347.625 C 177.34639 347.625 177.1875 347.53221 177.1875 347.40625 C 177.1875 347.28029 176.84799 347.09015 176.4375 347 C 176.02701 346.9099 175.6875 346.74456 175.6875 346.625 C 175.6875 346.50544 175.23778 346.18436 174.65625 345.90625 C 173.07966 345.15228 170.90781 343.92032 170.34375 343.4375 C 170.07008 343.20326 169.18911 342.57058 168.375 342.03125 C 167.56089 341.49195 166.70621 340.8615 166.46875 340.65625 C 166.23129 340.45101 165.11317 339.5769 164 338.6875 C 161.62041 336.78624 156.94673 332.21715 155.1875 330.09375 C 154.50731 329.27277 153.89052 328.53716 153.8125 328.46875 C 153.4299 328.13326 150.32129 324.02893 150.3125 323.84375 C 150.3065 323.72657 149.96742 323.22374 149.5625 322.75 C 149.15757 322.27626 148.84375 321.78748 148.84375 321.65625 C 148.84375 321.52504 148.69164 321.24727 148.5 321.03125 C 148.30836 320.81523 147.81586 320.0904 147.4375 319.40625 C 147.05912 318.7221 146.55451 317.81674 146.3125 317.40625 C 146.07048 316.99575 145.47868 315.80748 144.96875 314.78125 C 144.4588 313.75502 143.95555 312.88092 143.875 312.8125 C 143.7944 312.744 143.72401 312.57434 143.71875 312.4375 C 143.71275 312.30067 143.53225 311.79141 143.3125 311.3125 C 142.74981 310.08619 142.2925 308.97939 142.21875 308.6875 C 142.18415 308.55067 141.85322 307.75873 141.5 306.90625 C 141.14678 306.05378 140.875 305.17858 140.875 304.96875 C 140.875 304.75893 140.77659 304.39385 140.65625 304.15625 C 140.15711 303.17052 139.22813 299.71959 139.34375 299.28125 C 139.37465 299.16423 139.27126 298.92626 139.125 298.75 C 138.87822 298.45264 138.71082 297.68645 138.53125 296.09375 C 138.49135 295.73998 138.39348 295.34977 138.3125 295.21875 C 138.2316 295.08774 138.11592 294.22309 138.03125 293.28125 C 137.94655 292.33941 137.81891 291.48651 137.75 291.375 C 137.38964 290.79193 136.92803 277.5522 137.25 277.03125 C 137.3178 276.92163 137.42267 275.69824 137.5 274.3125 C 137.6762 271.15533 137.75293 270.95787 138.53125 271.3125 C 138.85754 271.46116 139.04096 271.66442 138.96875 271.78125 C 138.89655 271.89806 138.96695 272 139.09375 272 C 139.34411 272 142.48835 273.98021 143.15625 274.5625 C 143.38221 274.75947 143.83487 275.0269 144.15625 275.125 C 144.47761 275.2231 144.91292 275.43951 145.125 275.625 C 145.51748 275.96829 148.21418 277.48986 149.34375 278 C 149.68583 278.1545 150.26181 278.43518 150.625 278.625 C 150.98819 278.81483 151.4234 278.96875 151.625 278.96875 C 151.82659 278.96875 152.14215 279.1385 152.3125 279.34375 C 152.48284 279.549 152.80856 279.71791 153.03125 279.71875 C 153.25396 279.71942 153.76432 279.88935 154.15625 280.09375 C 154.54817 280.29815 155.00768 280.46875 155.1875 280.46875 C 155.36734 280.46875 155.66052 280.59804 155.84375 280.78125 C 156.02696 280.96446 156.47283 281.20105 156.8125 281.28125 C 157.71712 281.49486 161.07771 282.46566 161.65625 282.6875 C 161.92991 282.7924 162.46103 283.00239 162.84375 283.15625 C 163.22648 283.31012 163.85402 283.4375 164.25 283.4375 C 164.64597 283.4375 165.04708 283.53016 165.125 283.65625 C 165.2029 283.78234 166.01534 283.96643 166.9375 284.0625 C 167.85968 284.1585 168.8181 284.34138 169.0625 284.46875 C 169.3069 284.59613 168.11861 283.3257 166.4375 281.625 C 163.11853 278.26739 161.57259 276.52974 160.5625 275.0625 C 160.20506 274.54331 159.7082 273.96005 159.46875 273.78125 C 159.22928 273.60245 159.03125 273.30786 159.03125 273.125 C 159.03125 272.94217 158.86149 272.73501 158.65625 272.65625 C 158.451 272.57755 158.28125 272.39175 158.28125 272.25 C 158.28125 272.10825 157.81338 271.29207 157.21875 270.4375 C 156.62413 269.58294 155.82162 268.35508 155.46875 267.71875 C 155.11585 267.08243 154.57819 266.15174 154.25 265.625 C 153.92182 265.09825 153.56051 264.48649 153.46875 264.28125 C 153.37705 264.07601 153.21809 263.73649 153.09375 263.53125 C 152.598 262.71293 151.02893 259.30279 150.1875 257.1875 C 149.69764 255.95602 149.19079 254.7424 149.0625 254.46875 C 148.93419 254.19509 148.67249 253.30306 148.46875 252.5 C 148.26502 251.69695 147.99644 250.90477 147.875 250.75 C 147.75357 250.59523 147.65965 250.29899 147.65625 250.09375 C 147.65325 249.88851 147.44727 249.07098 147.21875 248.25 C 146.99025 247.42901 146.77305 246.44199 146.71875 246.0625 C 146.66445 245.68302 146.55617 245.26645 146.46875 245.125 C 146.2984 244.84936 146.18371 244.21208 145.96875 242.28125 C 145.89405 241.6101 145.77925 241.00415 145.71875 240.90625 C 145.65825 240.80835 145.54122 240.1111 145.46875 239.375 C 145.39625 238.63891 145.28887 237.63515 145.21875 237.15625 C 145.14865 236.67735 145.04326 234.8413 144.96875 233.0625 C 144.89425 231.2837 144.82157 229.73057 144.8125 229.59375 C 144.8035 229.45691 144.8752 227.81597 144.96875 225.96875 C 145.13741 222.63727 145.93231 216.86762 146.71875 213.28125 C 146.94378 212.25502 147.17444 211.01311 147.25 210.5 C 147.3255 209.98689 147.50416 209.5625 147.625 209.5625 C 147.74584 209.5625 147.912 209.11287 148 208.5625 C 148.088 208.01215 148.25615 207.47971 148.375 207.40625 C 148.49386 207.33285 148.59375 206.96491 148.59375 206.5625 C 148.59375 206.16008 148.7069 205.8125 148.84375 205.8125 C 148.98059 205.8125 149.09368 205.61446 149.09375 205.375 C 149.09391 204.84308 150.02568 202.29577 150.34375 201.96875 C 150.47017 201.83875 150.5625 201.57083 150.5625 201.34375 C 150.5625 200.9729 151.43799 199.01531 152.5 197 C 152.71631 196.58951 153.26122 195.4861 153.71875 194.5625 C 154.1763 193.63889 154.6574 192.875 154.78125 192.875 C 154.90511 192.875 155.09735 192.53549 155.1875 192.125 C 155.2776 191.7145 155.43372 191.40625 155.53125 191.40625 C 155.62875 191.40625 156.11157 190.69021 156.625 189.8125 C 157.13845 188.9348 157.73836 188.07153 157.9375 187.90625 C 158.13665 187.74097 158.28125 187.45299 158.28125 187.28125 C 158.28125 187.10951 158.46365 186.81078 158.6875 186.625 C 158.91136 186.43922 159.38365 185.87459 159.71875 185.34375 C 159.96344 184.95613 160.12868 184.70102 160.28125 184.625 z M 559.6875 184.625 C 559.88567 184.57971 560.04878 184.82692 560.375 185.34375 C 560.71021 185.87459 561.18239 186.43922 561.40625 186.625 C 561.63011 186.81078 561.8125 187.10951 561.8125 187.28125 C 561.8125 187.45299 561.98831 187.74097 562.1875 187.90625 C 562.38669 188.07153 562.95521 188.9348 563.46875 189.8125 C 563.98217 190.69021 564.49623 191.40625 564.59375 191.40625 C 564.69175 191.40625 564.84736 191.7145 564.9375 192.125 C 565.0274 192.53549 565.1887 192.875 565.3125 192.875 C 565.43642 192.875 565.91749 193.63889 566.375 194.5625 C 566.83263 195.4861 567.3775 196.58951 567.59375 197 C 568.65575 199.01531 569.53125 200.9729 569.53125 201.34375 C 569.53125 201.57083 569.62389 201.83875 569.75 201.96875 C 570.06804 202.29577 571.03114 204.84308 571.03125 205.375 C 571.03137 205.61446 571.14407 205.8125 571.28125 205.8125 C 571.41808 205.8125 571.53125 206.16008 571.53125 206.5625 C 571.53125 206.96491 571.59953 207.33278 571.71875 207.40625 C 571.83772 207.47965 572.00579 208.01215 572.09375 208.5625 C 572.18135 209.11287 572.37908 209.5625 572.5 209.5625 C 572.6208 209.5625 572.76825 209.98689 572.84375 210.5 C 572.91985 211.01311 573.18124 212.25502 573.40625 213.28125 C 574.19275 216.86762 574.9876 222.63727 575.15625 225.96875 C 575.24965 227.81597 575.29035 229.45691 575.28125 229.59375 C 575.26975 229.73057 575.23098 231.2837 575.15625 233.0625 C 575.08135 234.8413 574.94509 236.67735 574.875 237.15625 C 574.8047 237.63515 574.69739 238.63891 574.625 239.375 C 574.5524 240.1111 574.43552 240.80834 574.375 240.90625 C 574.3139 241.00415 574.1997 241.6101 574.125 242.28125 C 573.91002 244.21208 573.82662 244.84936 573.65625 245.125 C 573.56865 245.26645 573.42929 245.68302 573.375 246.0625 C 573.3208 246.44199 573.10347 247.42901 572.875 248.25 C 572.64653 249.07098 572.44095 249.88851 572.4375 250.09375 C 572.4375 250.29899 572.33967 250.59523 572.21875 250.75 C 572.09737 250.90477 571.8288 251.69695 571.625 252.5 C 571.42131 253.30306 571.15955 254.19509 571.03125 254.46875 C 570.90295 254.7424 570.39615 255.95602 569.90625 257.1875 C 569.41634 258.41897 568.64836 260.22969 568.1875 261.1875 C 567.72653 262.14532 567.26889 263.07599 567.1875 263.28125 C 567.1057 263.48649 566.89062 263.88777 566.71875 264.15625 C 566.18055 264.9967 565.29219 266.51565 564.625 267.71875 C 564.27203 268.35508 563.50625 269.55403 562.9375 270.375 C 562.36875 271.19599 561.84003 272.07304 561.75 272.3125 C 561.6601 272.55195 561.4536 272.75 561.3125 272.75 C 561.17141 272.75 561.0625 272.89625 561.0625 273.09375 C 561.0625 273.29123 560.86453 273.60245 560.625 273.78125 C 560.38558 273.96005 559.88859 274.54331 559.53125 275.0625 C 558.52112 276.52974 556.97516 278.26739 553.65625 281.625 C 552.18527 283.11311 551.11553 284.28444 551.03125 284.46875 C 551.27563 284.34138 552.23407 284.15857 553.15625 284.0625 C 554.07843 283.9665 554.89083 283.78234 554.96875 283.65625 C 555.04715 283.53016 555.44779 283.4375 555.84375 283.4375 C 556.23971 283.4375 556.86729 283.31012 557.25 283.15625 C 557.63281 283.00239 558.1951 282.79244 558.46875 282.6875 C 559.0473 282.46566 562.40785 281.49486 563.3125 281.28125 C 563.65221 281.20105 564.06672 280.96446 564.25 280.78125 C 564.43317 280.59804 564.72642 280.46875 564.90625 280.46875 C 565.08607 280.46875 565.54558 280.29815 565.9375 280.09375 C 566.32954 279.88935 566.8398 279.7196 567.0625 279.71875 C 567.28521 279.71809 567.611 279.549 567.78125 279.34375 C 567.95162 279.1385 568.26714 278.96875 568.46875 278.96875 C 568.67025 278.96875 569.13678 278.81483 569.5 278.625 C 569.86323 278.43518 570.43924 278.1545 570.78125 278 C 571.9108 277.48986 574.6075 275.96829 575 275.625 C 575.2121 275.43951 575.64738 275.22311 575.96875 275.125 C 576.29013 275.0269 576.71156 274.75947 576.9375 274.5625 C 577.6055 273.98021 580.78088 272 581.03125 272 C 581.15805 272 581.19731 271.89805 581.125 271.78125 C 581.0524 271.66442 581.26753 271.46116 581.59375 271.3125 C 582.37206 270.95787 582.4175 271.15533 582.59375 274.3125 C 582.67095 275.69824 582.80734 276.92161 582.875 277.03125 C 583.19696 277.5522 582.73534 290.79193 582.375 291.375 C 582.3058 291.48646 582.17836 292.33941 582.09375 293.28125 C 582.00955 294.22309 581.86217 295.08774 581.78125 295.21875 C 581.70055 295.34977 581.60238 295.73998 581.5625 296.09375 C 581.38302 297.68645 581.21555 298.45264 580.96875 298.75 C 580.82247 298.92626 580.71911 299.16423 580.75 299.28125 C 580.86562 299.71959 579.93662 303.17052 579.4375 304.15625 C 579.31727 304.39385 579.21875 304.75893 579.21875 304.96875 C 579.21875 305.17858 578.94694 306.05378 578.59375 306.90625 C 578.24044 307.75873 577.90958 308.55067 577.875 308.6875 C 577.8012 308.97939 577.344 310.08619 576.78125 311.3125 C 576.56154 311.79141 576.3803 312.30067 576.375 312.4375 C 576.3635 312.57434 576.29862 312.74409 576.21875 312.8125 C 576.13805 312.8809 575.66621 313.75502 575.15625 314.78125 C 574.64629 315.80748 574.02332 316.99575 573.78125 317.40625 C 573.53929 317.81674 573.03458 318.7221 572.65625 319.40625 C 572.27793 320.0904 571.8167 320.81523 571.625 321.03125 C 571.43342 321.24727 571.28125 321.52504 571.28125 321.65625 C 571.28125 321.78748 570.9362 322.27626 570.53125 322.75 C 570.12641 323.22374 569.78678 323.72657 569.78125 323.84375 C 569.76975 324.02893 566.69509 328.13326 566.3125 328.46875 C 566.2341 328.53715 565.58647 329.27277 564.90625 330.09375 C 563.14697 332.21715 558.47331 336.78624 556.09375 338.6875 C 554.98057 339.5769 553.86246 340.45101 553.625 340.65625 C 553.38754 340.8615 552.5328 341.49195 551.71875 342.03125 C 550.90458 342.57058 550.02365 343.20326 549.75 343.4375 C 549.18586 343.92032 547.04533 345.15228 545.46875 345.90625 C 544.88721 346.18436 544.40625 346.50544 544.40625 346.625 C 544.40625 346.74456 544.06674 346.90984 543.65625 347 C 543.24577 347.0901 542.90625 347.28029 542.90625 347.40625 C 542.90625 347.53221 542.74739 347.625 542.5625 347.625 C 542.37771 347.625 541.70583 347.90792 541.0625 348.25 C 540.41917 348.59207 539.72928 348.875 539.53125 348.875 C 539.33321 348.875 539.1875 348.98814 539.1875 349.125 C 539.1875 349.26183 539.0058 349.375 538.78125 349.375 C 538.42737 349.375 537.05091 349.93294 535.625 350.65625 C 535.38742 350.77678 535.0156 350.875 534.78125 350.875 C 534.48315 350.875 534.41093 350.94221 534.59375 351.125 C 535.04861 351.57989 545.65097 351.95522 547.9375 351.59375 C 548.58418 351.4915 550.13664 351.3225 551.40625 351.25 C 552.67597 351.1775 554.28461 350.95014 554.96875 350.75 C 555.653 350.54984 556.98257 350.31299 557.90625 350.21875 C 558.8298 350.12445 559.5625 349.96465 559.5625 349.84375 C 559.5625 349.72287 559.83153 349.625 560.15625 349.625 C 560.96961 349.625 564.50844 348.70682 564.875 348.40625 C 565.13759 348.19096 566.12679 348.01559 566.59375 348.09375 C 566.68485 348.10895 566.58814 348.8323 566.375 349.6875 C 566.16717 350.54269 565.94579 351.44509 565.90625 351.71875 C 565.86705 351.99241 565.64071 352.95434 565.40625 353.84375 C 565.1719 354.73315 564.97035 355.58192 564.9375 355.71875 C 564.9052 355.85559 564.80589 356.1385 564.71875 356.34375 C 564.63225 356.54899 564.25898 357.59651 563.90625 358.6875 C 563.55364 359.77846 563.14501 360.82528 563 361 C 562.85499 361.1747 562.79949 361.3125 562.875 361.3125 C 563.04617 361.3125 561.86669 364.3085 561.53125 364.71875 C 561.39626 364.88378 561.34954 365.13841 561.4375 365.28125 C 561.5263 365.42407 561.4937 365.53125 561.375 365.53125 C 561.25638 365.53125 560.97535 365.95563 560.75 366.46875 C 559.60223 369.08269 559.15743 369.94594 558.59375 370.625 C 558.41139 370.84486 558.36685 371 558.46875 371 C 558.57019 371 558.49459 371.18641 558.3125 371.40625 C 557.98121 371.80541 557.59045 372.43574 557.09375 373.375 C 556.39647 374.69319 554.06052 378.08653 553.6875 378.3125 C 553.50422 378.42351 553.39221 378.59478 553.46875 378.71875 C 553.54595 378.84269 553.40415 379.10705 553.125 379.28125 C 552.84604 379.45549 552.59375 379.73508 552.59375 379.90625 C 552.59375 380.07742 552.39866 380.36033 552.125 380.53125 C 551.85135 380.70214 551.59617 380.95562 551.59375 381.09375 C 551.59375 381.23188 551.11347 381.8773 550.5 382.53125 C 549.88663 383.18521 549.375 383.78163 549.375 383.84375 C 549.375 384.05906 543.51556 389.84355 541.90625 391.21875 C 539.7532 393.05847 535.23084 396.39025 534.53125 396.65625 C 534.22394 396.7731 533.78047 397.06758 533.53125 397.3125 C 533.28215 397.55741 532.66218 397.94366 532.1875 398.1875 C 530.85864 398.87017 529.85881 399.47215 529.71875 399.65625 C 529.64845 399.74805 529.28249 399.90559 528.90625 400 C 528.53011 400.0944 528.16672 400.28828 528.09375 400.40625 C 527.91508 400.69541 524.24065 402.39383 522.3125 403.09375 C 521.45741 403.40422 520.75 403.75486 520.75 403.875 C 520.75 403.99516 520.54845 404.09375 520.28125 404.09375 C 520.01394 404.09375 519.5331 404.21615 519.21875 404.34375 C 518.90441 404.47133 517.97722 404.74096 517.15625 404.96875 C 516.33528 405.19654 515.10573 405.61463 514.4375 405.875 C 513.76938 406.1354 512.92352 406.34375 512.53125 406.34375 C 512.13898 406.34375 511.8125 406.44473 511.8125 406.5625 C 511.8125 406.68021 511.18607 406.82901 510.4375 406.90625 C 509.68892 406.98345 508.73 407.16368 508.28125 407.3125 C 507.83261 407.4613 492.9696 409.54515 475.25 411.9375 C 457.53052 414.32985 442.5938 416.35873 442.09375 416.4375 C 441.2503 416.57034 441.19552 416.52622 441.0625 415.875 C 440.9841 415.48889 436.89409 385.51016 431.96875 349.25 C 427.04353 312.98985 422.89768 282.62954 422.78125 281.78125 L 422.59375 280.21875 L 423.96875 280.0625 C 424.73196 279.9703 425.45692 279.82182 425.59375 279.71875 C 425.73057 279.6157 426.52279 279.44224 427.34375 279.34375 C 428.16472 279.24535 428.95692 279.0735 429.09375 278.96875 C 429.23058 278.86397 429.87005 278.71124 430.53125 278.625 C 431.19245 278.5388 432.09771 278.31982 432.53125 278.125 C 432.96467 277.93018 433.65202 277.72173 434.0625 277.65625 C 435.58305 277.4137 440.05128 276.19875 440.28125 275.96875 C 440.41208 275.83788 440.8124 275.71875 441.1875 275.71875 C 441.56248 275.71875 441.94676 275.6056 442.03125 275.46875 C 442.11545 275.33191 442.44534 275.21875 442.78125 275.21875 C 443.11703 275.21875 443.60606 275.12004 443.84375 275 C 444.48628 274.6754 445.99532 274.25 446.4375 274.25 C 446.65052 274.25 446.95463 274.08025 447.125 273.875 C 447.29538 273.66976 447.72292 273.5 448.09375 273.5 C 448.46469 273.5 448.87284 273.40838 448.96875 273.3125 C 449.20471 273.07656 451.86298 272.25458 452.40625 272.25 C 452.64579 272.248 452.84375 272.15719 452.84375 272.03125 C 452.84375 271.9053 453.21603 271.72169 453.65625 271.625 C 454.09636 271.5283 454.63407 271.36159 454.84375 271.25 C 455.05354 271.13842 456.14952 270.65835 457.3125 270.21875 C 459.63592 269.3406 460.8045 268.90511 461.9375 268.40625 C 462.34799 268.22551 462.93913 267.95633 463.28125 267.8125 C 463.62326 267.66866 464.78036 267.14256 465.84375 266.65625 C 466.90724 266.16994 467.86305 265.78125 467.96875 265.78125 C 468.30177 265.78125 472.38184 263.714 472.46875 263.5 C 472.51485 263.38772 472.6908 263.28125 472.875 263.28125 C 473.05921 263.28125 474.43181 262.69008 475.90625 261.9375 C 477.38058 261.18494 478.72908 260.5625 478.90625 260.5625 C 479.08354 260.5625 479.21875 260.45974 479.21875 260.34375 C 479.21875 260.2277 479.6997 259.9127 480.28125 259.65625 C 480.8628 259.39979 481.40027 259.11652 481.46875 259.03125 C 481.6239 258.83778 482.77316 258.23316 484 257.6875 C 484.51319 257.4593 484.9375 257.15322 484.9375 257.03125 C 484.9375 256.90928 485.07479 256.8125 485.25 256.8125 C 485.42522 256.8125 486.35885 256.33356 487.3125 255.71875 C 488.26626 255.10394 489.15733 254.59467 489.28125 254.59375 C 489.40516 254.59308 489.86397 254.31082 490.3125 253.96875 C 490.7609 253.62667 491.24589 253.34375 491.375 253.34375 C 491.50422 253.34375 491.7376 253.17189 491.90625 252.96875 C 492.07477 252.76561 492.71181 252.36252 493.3125 252.0625 C 493.91329 251.76247 494.40625 251.41587 494.40625 251.3125 C 494.40625 251.2091 494.63595 251.06444 494.9375 250.96875 C 495.23894 250.87305 495.63982 250.65298 495.8125 250.5 C 496.44672 249.93802 496.76028 249.71089 497.125 249.53125 C 497.81213 249.19282 498.50909 248.75193 499.40625 248.0625 C 499.89593 247.68622 500.41115 247.375 500.5625 247.375 C 500.71385 247.375 500.92185 247.23594 501.03125 247.0625 C 501.14075 246.88906 501.4858 246.57784 501.78125 246.375 C 504.30605 244.64093 506.34375 243.0852 506.34375 242.90625 C 506.34375 242.78734 506.59836 242.64429 506.90625 242.5625 C 507.21403 242.4808 507.7942 242.09649 508.21875 241.71875 C 508.64329 241.34101 509.87297 240.35224 510.9375 239.53125 C 512.00215 238.71027 513.65119 237.35251 514.625 236.53125 C 515.59882 235.71 516.66905 234.83589 517 234.5625 C 517.86097 233.85117 519.16656 232.69521 520.25 231.6875 C 520.76492 231.20859 521.89572 230.22132 522.75 229.46875 C 524.04231 228.33032 525.5212 226.85863 531.21875 221.125 C 531.54577 220.79595 533.56445 218.67715 534.8125 217.375 C 535.35981 216.80393 536.03481 216.07937 536.3125 215.75 C 536.59019 215.42061 537.42566 214.47724 538.15625 213.65625 C 540.97119 210.49343 541.98462 209.28534 544.40625 206.1875 C 545.36889 204.95602 546.45183 203.59566 546.84375 203.15625 C 547.23579 202.71684 547.61926 202.20758 547.6875 202.03125 C 547.7555 201.85493 548.58706 200.70024 549.53125 199.46875 C 551.21399 197.27367 551.97169 196.20331 552.46875 195.375 C 552.60557 195.14697 553.08653 194.52908 553.53125 193.96875 C 553.97597 193.40841 554.34375 192.87239 554.34375 192.78125 C 554.34375 192.69005 554.71153 192.12552 555.15625 191.53125 C 555.60097 190.93699 556.17063 190.13955 556.40625 189.75 C 556.91886 188.90215 557.30294 188.28012 557.96875 187.28125 C 558.24241 186.87074 558.65289 186.13572 558.90625 185.65625 C 559.26181 184.98361 559.48933 184.67029 559.6875 184.625 z "
       transform="translate(33.449391,30.08393)"
       id="rect2983" />
  </g>
</svg>
